<?xml version="1.0" encoding="UTF-8"?>
<!DOCTYPE svg PUBLIC "-//W3C//DTD SVG 1.1//EN" "http://www.w3.org/Graphics/SVG/1.1/DTD/svg11.dtd">
<!-- Creator: CorelDRAW 2019 (64 Bit) -->
<svg xmlns="http://www.w3.org/2000/svg" xml:space="preserve" width="210mm" height="297mm" version="1.1" style="shape-rendering:geometricPrecision; text-rendering:geometricPrecision; image-rendering:optimizeQuality; fill-rule:evenodd; clip-rule:evenodd"
viewBox="0 0 21000 29700"
 xmlns:xlink="http://www.w3.org/1999/xlink">
 <defs>
  <style type="text/css">
   <![CDATA[
    .fil0 {fill:#BCE7D8}
    .fil1 {fill:#BEEEDA}
    .fil2 {fill:#CEEFE2}
   ]]>
  </style>
 </defs>
 <g id="Camada_x0020_1">
  <metadata id="CorelCorpID_0Corel-Layer"/>
  <g id="_2435986215328">
   <path class="fil0" d="M-12084.91 14780.13c7106.23,38.12 12720.31,5671.14 12770.66,12770.4l28626.17 0c-434.94,-194.16 -3570.22,-370.99 -5851.75,-1883.85 -1556.41,-1032.05 -2744.29,-2807.81 -1617.97,-5342.56 496.5,-1117.36 961.02,-1496.42 1526.97,-2351.53 499.1,-754.1 993.02,-1569.83 1404.18,-2477.17 4327.09,-9548.79 -3817.12,-9264.15 -11758.35,-8569.13 -2735.28,239.39 -4335.09,261.09 -6515.3,-982.78 -1311.82,-748.43 -3331.18,-2474.39 -3886.19,-3792.98l-14698.42 0 0 12629.6z"/>
   <path class="fil1" d="M29311.92 27550.53l3758.73 0 0.02 -25400 -30457.16 0c555.01,1318.59 2574.37,3044.55 3886.19,3792.98 2180.21,1243.87 3780.02,1222.17 6515.3,982.78 7941.23,-695.02 16085.44,-979.66 11758.35,8569.13 -411.16,907.34 -905.08,1723.07 -1404.18,2477.17 -565.95,855.11 -1030.47,1234.17 -1526.97,2351.53 -1126.32,2534.75 61.56,4310.51 1617.97,5342.56 2281.53,1512.86 5416.81,1689.69 5851.75,1883.85z"/>
   <path class="fil1" d="M-12084.91 17461.08c5632.91,43.98 10032.11,4454.7 10089.64,10089.45l2681.02 0c-50.35,-7099.26 -5664.43,-12732.28 -12770.66,-12770.4l0 2680.95z"/>
   <path class="fil0" d="M-12084.91 27550.53l7725.85 0c-59.63,-4329.76 -3397.98,-7674.16 -7725.85,-7725.7l0 7725.7z"/>
   <path class="fil2" d="M-12084.91 19824.83c4327.87,51.54 7666.22,3395.94 7725.85,7725.7l2363.79 0c-57.53,-5634.75 -4456.73,-10045.47 -10089.64,-10089.45l0 2363.75z"/>
  </g>
 </g>
</svg>
