<?xml version="1.0" encoding="UTF-8"?>
<!DOCTYPE svg PUBLIC "-//W3C//DTD SVG 1.1//EN" "http://www.w3.org/Graphics/SVG/1.1/DTD/svg11.dtd">
<!-- Creator: CorelDRAW 2019 (64 Bit) -->
<svg xmlns="http://www.w3.org/2000/svg" xml:space="preserve" width="481.894mm" height="232.481mm" version="1.1" style="shape-rendering:geometricPrecision; text-rendering:geometricPrecision; image-rendering:optimizeQuality; fill-rule:evenodd; clip-rule:evenodd"
viewBox="0 0 48189.4 23248.1"
 xmlns:xlink="http://www.w3.org/1999/xlink">
 <defs>
  <style type="text/css">
   <![CDATA[
    .fil0 {fill:#BCE7D9}
    .fil2 {fill:#BEEEDA}
    .fil1 {fill:#BEEEDA}
    .fil3 {fill:#CEEFE2}
   ]]>
  </style>
 </defs>
 <g id="Camada_x0020_1">
  <metadata id="CorelCorpID_0Corel-Layer"/>
  <rect class="fil0" x="-1.43" y="0.68" width="48189.4" height="23248.1"/>
  <path class="fil1" d="M44827.08 23248.78l3360.89 0 0 -23249.24c-8717.75,-34.78 -19149.24,15.46 -27866.68,15.46 210.43,531.41 1237.93,1685.26 1575.49,1985.62 645.1,574.04 1239.65,1092.96 2049.01,1514.43 2262.99,1178.46 3457.75,1090.15 5904.79,867.29 3695.18,-336.53 10196.81,-958.35 11529.47,2155.26 794.89,1857.17 -116.92,4235.05 -808.06,5745.47 -376.59,823.01 -845.29,1570.96 -1297.67,2266.82 -491.7,756.36 -925.26,1026.06 -1381.43,2146.07 -978.25,2401.85 98.12,3894.95 1546.83,4859.19 1056.19,703 2600.7,1174.77 3914.19,1433.16 253.05,49.79 1337.09,199.93 1473.17,260.47z"/>
  <path class="fil2" d="M-1.43 14218.78c4984.74,-3.78 9041,4055.81 9029.85,9030l2399.71 0c9.38,-6306 -5135.73,-11442.85 -11429.56,-11429.56l0 2399.56z"/>
  <path class="fil3" d="M-1.43 16334.01c3834.72,5.08 6893.53,3082.86 6914.91,6914.77l2114.94 0c11.15,-4974.19 -4045.11,-9033.78 -9029.85,-9030l0 2115.23z"/>
 </g>
</svg>
